<svg xmlns="http://www.w3.org/2000/svg" viewBox="0 0 320 100" width="320" height="100">
  <defs>
    <linearGradient id="purpleGrad" x1="0%" y1="0%" x2="100%" y2="100%">
      <stop offset="0%" stop-color="#8B5CF6"></stop>
      <stop offset="100%" stop-color="#7C3AED"></stop>
    </linearGradient>
    <linearGradient id="textGrad" x1="0%" y1="0%" x2="0%" y2="100%">
      <stop offset="0%" stop-color="#FFFFFF"></stop>
      <stop offset="100%" stop-color="#E4E4E7"></stop>
    </linearGradient>
    <filter id="eyeGlow" x="-20%" y="-20%" width="140%" height="140%">
      <feGaussianBlur stdDeviation="1.5" result="blur"></feGaussianBlur>
      <feComposite in="SourceGraphic" in2="blur" operator="over"></feComposite>
    </filter>
  </defs>
  <g transform="translate(10, 0)">
    <path d="M 26 44 A 30 30 0 0 1 86 44 L 86 72 C 86 78, 77 78, 72 73 C 72 78, 63 78, 58 73 C 58 78, 49 78, 44 73 C 44 78, 20 86, 14 86 C 18 83, 26 78, 26 72 Z" fill="#FFFFFF"></path>
    <ellipse cx="45" cy="44" rx="5.5" ry="3.5" fill="url(#purpleGrad)" filter="url(#eyeGlow)"></ellipse>
    <ellipse cx="67" cy="44" rx="5.5" ry="3.5" fill="url(#purpleGrad)" filter="url(#eyeGlow)"></ellipse>
  </g>
  <text x="120" y="58" font-size="42" font-weight="800" fill="url(#textGrad)" letter-spacing="-0.03em" font-family="-apple-system, BlinkMacSystemFont, 'Segoe UI', Roboto, sans-serif">Charcha</text>
</svg>