<svg xmlns="http://www.w3.org/2000/svg" viewBox="0 0 32 32" width="32" height="32">
  <defs>
    <linearGradient id="charchaGrad" x1="0%" y1="0%" x2="100%" y2="100%">
      <stop offset="0%" stop-color="#7C3AED"></stop>
      <stop offset="100%" stop-color="#8B5CF6"></stop>
    </linearGradient>
  </defs>
  <rect width="32" height="32" rx="9" fill="url(#charchaGrad)"></rect>
  <g transform="scale(0.32) translate(0, 0)">
    <path d="M 26 44 A 30 30 0 0 1 86 44 L 86 72 C 86 78, 77 78, 72 73 C 72 78, 63 78, 58 73 C 58 78, 49 78, 44 73 C 44 78, 20 86, 14 86 C 18 83, 26 78, 26 72 Z" fill="#FFFFFF"></path>
    <ellipse cx="45" cy="44" rx="5.5" ry="3.5" fill="#7C3AED"></ellipse>
    <ellipse cx="67" cy="44" rx="5.5" ry="3.5" fill="#7C3AED"></ellipse>
  </g>
</svg>